<?xml version="1.0" encoding="UTF-8" standalone="no"?>
<!-- Created with Inkscape (http://www.inkscape.org/) -->

<svg
   width="210mm"
   height="297mm"
   viewBox="0 0 210 297"
   version="1.1"
   id="svg1"
   xml:space="preserve"
   inkscape:export-filename="user.svg"
   inkscape:export-xdpi="96"
   inkscape:export-ydpi="96"
   xmlns:inkscape="http://www.inkscape.org/namespaces/inkscape"
   xmlns:sodipodi="http://sodipodi.sourceforge.net/DTD/sodipodi-0.dtd"
   xmlns="http://www.w3.org/2000/svg"
   xmlns:svg="http://www.w3.org/2000/svg"><sodipodi:namedview
     id="namedview1"
     pagecolor="#ffffff"
     bordercolor="#000000"
     borderopacity="0.25"
     inkscape:showpageshadow="2"
     inkscape:pageopacity="0.0"
     inkscape:pagecheckerboard="0"
     inkscape:deskcolor="#d1d1d1"
     inkscape:document-units="mm"><inkscape:page
       x="0"
       y="0"
       width="210"
       height="297"
       id="page2"
       margin="0"
       bleed="0" /></sodipodi:namedview><defs
     id="defs1" /><g
     inkscape:label="Layer 1"
     inkscape:groupmode="layer"
     id="layer1"><path
       style="fill:#552200;fill-opacity:1;stroke-width:2.68801"
       d="m 6.5083118,254.72626 c -2.8114819,-3.39356 -2.9346043,-3.86737 -2.9346043,-11.29335 0,-32.8945 21.6785155,-63.22668 51.6171165,-72.22171 10.765919,-3.23464 12.656826,-3.18163 21.809231,0.61151 4.181435,1.73297 11.801412,3.91136 16.933276,4.84091 12.067259,2.18575 22.537519,0.95143 36.373509,-4.28804 5.37926,-2.03703 11.37473,-3.70371 13.32328,-3.70371 8.25765,0 26.2982,8.38517 35.2889,16.40214 16.36373,14.59143 27.4877,38.64371 27.4877,59.43397 0,6.38185 -0.16489,6.93035 -3.08236,10.25153 l -3.08238,3.50893 H 104.84241 9.4429182 Z M 92.873647,158.80221 C 74.340299,153.93224 59.082469,137.00587 53.4056,115.01812 50.938239,105.46145 50.790705,87.853032 53.100106,78.55438 57.424245,61.143456 67.096651,47.11014 80.251617,39.161278 c 9.363734,-5.65799 17.137588,-7.492635 28.189123,-6.652689 13.57362,1.031609 23.66787,6.7644 34.1735,19.40797 10.42461,12.546102 15.42809,26.809756 15.44755,44.037047 0.0118,10.969254 -1.13619,17.993094 -4.35046,26.603624 -10.32062,27.64744 -35.79642,42.82504 -60.837683,36.24498 z"
       id="path1" /></g></svg>
